<svg width="21" height="20" viewBox="0 0 21 20" fill="none" xmlns="http://www.w3.org/2000/svg">
<path d="M18.9444 8.66574V16.8611C18.9444 18.3185 17.763 19.5 16.3055 19.5H13.1389C12.8474 19.5 12.6111 19.2637 12.6111 18.9722V12.6389C12.6111 12.3474 12.3748 12.1111 12.0833 12.1111H8.91667C8.62519 12.1111 8.38889 12.3474 8.38889 12.6389V18.9722C8.38889 19.2637 8.1526 19.5 7.86112 19.5H4.69445C3.23704 19.5 2.05557 18.3185 2.05557 16.8611V8.66574L1.8633 8.82407C1.6383 9.00937 1.30568 8.97718 1.12038 8.75218C0.935087 8.52717 0.967276 8.19456 1.19228 8.00926L10.1645 0.62037C10.3594 0.459877 10.6406 0.459877 10.8355 0.62037L19.8077 8.00926C20.0327 8.19456 20.0649 8.52717 19.8796 8.75218C19.6943 8.97718 19.3617 9.00937 19.1367 8.82407L18.9444 8.66574ZM17.896 7.80228L10.5 1.71149L3.10405 7.80228C3.1087 7.83046 3.11112 7.85939 3.11112 7.88889V16.8611C3.11112 17.7356 3.82 18.4444 4.69445 18.4444H7.33334V12.6389C7.33334 11.7644 8.04222 11.0556 8.91667 11.0556H12.0833C12.9578 11.0556 13.6667 11.7644 13.6667 12.6389V18.4444H16.3055C17.18 18.4444 17.8889 17.7356 17.8889 16.8611V7.88889C17.8889 7.85939 17.8913 7.83046 17.896 7.80228Z" fill="white" stroke="white" strokeWidth="0.5"/>
</svg>
