<svg width="34" height="36" viewBox="0 0 34 36" fill="none" xmlns="http://www.w3.org/2000/svg">
<g clipPath="url(#clip0_206_17564)">
<path d="M16.7463 17.5629L3.65625 31.6504C4.08125 33.1379 5.44125 34.2754 7.05625 34.2754C7.73625 34.2754 8.33125 34.1004 8.84125 33.7504L23.6313 25.0879L16.7463 17.5629Z" fill="#EA4335"/>
<path d="M30.0052 15.1128L23.6302 11.3503L16.4902 17.8253L23.7152 25.0878L30.0902 21.4128C31.1952 20.8003 31.9602 19.5753 31.9602 18.2628C31.8752 16.9503 31.1102 15.7253 30.0052 15.1128Z" fill="#FBBC04"/>
<path d="M3.65531 4.87537C3.57031 5.13787 3.57031 5.48787 3.57031 5.83787V30.7754C3.57031 31.1254 3.57031 31.3879 3.65531 31.7379L17.2553 18.0004L3.65531 4.87537Z" fill="#4285F4"/>
<path d="M16.8312 18.2629L23.6313 11.3504L8.92625 2.77537C8.41625 2.42537 7.73625 2.25037 7.05625 2.25037C5.44125 2.25037 3.99625 3.38787 3.65625 4.87537L16.8312 18.2629Z" fill="#34A853"/>
</g>
<defs>
<clipPath id="clip0_206_17564">
<rect width="34" height="35" fill="white" transform="translate(0 0.763062)"/>
</clipPath>
</defs>
</svg>
